<?xml version="1.0" encoding="utf-8"?>
<!-- Generator: Adobe Illustrator 25.4.1, SVG Export Plug-In . SVG Version: 6.00 Build 0)  -->
<svg version="1.1" id="Layer_1" xmlns="http://www.w3.org/2000/svg" xmlns:xlink="http://www.w3.org/1999/xlink" x="0px" y="0px"
	 viewBox="0 0 100 100" style="enable-background:new 0 0 100 100;" xml:space="preserve">
<style type="text/css">
	.st0{fill:#174374;}
	.st1{fill:#EF3F23;}
</style>
<g id="Group_14513" transform="translate(447.769 2629.592)">
	<g id="Group_14511">
		<g id="Path_108848_00000037655378760886999550000009181834623257583270_">
			<path class="st0" d="M-429.2-2538.7c-4,0-7.1-3.1-7.1-7.1v-56.2c0-4,3.3-7.1,7.1-7.1l0,0h7v4.1h-7l0,0c-1.6,0-3,1.4-3,3v56.2
				c0,1.6,1.4,3,3,3l0,0h39.6l0,0c1.1,0,1.9-0.5,2.6-1.4l3.4,2.2c-1.4,2-3.5,3.3-6,3.3l0,0H-429.2
				C-429.1-2538.7-429.2-2538.7-429.2-2538.7z"/>
		</g>
		<g id="Path_108849_00000129165177908433688210000017696044157992839584_">
			<path class="st0" d="M-382.4-2587.5h-4.1v-14.5c0-1.6-1.4-3-3-3l0,0h-7v-4.1h7l0,0c4,0,7.1,3.1,7.1,7.1V-2587.5z"/>
		</g>
		<g id="Path_108850_00000019641065825688053370000012594004551930966700_">
			<path class="st0" d="M-398.8-2600.6h-21.1c-2.3,0-4.2-1.9-4.2-4.2v-4.5c0-1.1,0.4-2.2,1.2-3c0.8-0.8,1.9-1.2,3-1.2l0,0h3.1
				c0.3-3.8,3.5-7,7.4-7c2,0,3.8,0.8,5.2,2.3c1.8,1.8,2.3,3.4,2.5,4.8h3.1c2.3,0,4.2,1.9,4.2,4.2v4.5
				C-394.6-2602.5-396.5-2600.6-398.8-2600.6z M-419.9-2609.3C-420.1-2609.3-420.1-2609.3-419.9-2609.3l-0.1,4.6c0,0,0,0.1,0.1,0.1
				h21.3c0,0,0.1,0,0.1-0.1v-4.5c0,0,0-0.1-0.1-0.1h-8l0.8-2.6c0.3-0.8,0.5-1.8-1.2-3.4c-0.5-0.7-1.4-1-2.2-1
				c-1.8,0-3.4,1.6-3.4,3.4c0,0.3,0,0.5,0.1,1l0.8,2.6L-419.9-2609.3L-419.9-2609.3z"/>
		</g>
		<g id="Path_108851_00000090998236342469634280000015878284287872812455_">
			<polygon class="st1" points="-422.4,-2581.5 -428.5,-2587.5 -425.5,-2590.5 -422.4,-2587.2 -417.1,-2592.6 -414.2,-2589.7 			"/>
		</g>
		<g id="Path_108852_00000155111344812543304600000009560664863960529033_">
			<polygon class="st1" points="-422.4,-2566.8 -428.5,-2572.8 -425.5,-2575.8 -422.4,-2572.5 -417.1,-2577.8 -414.2,-2575 			"/>
		</g>
		<g id="Path_108853_00000042705150961045954490000007295145614020277672_">
			<polygon class="st1" points="-422.4,-2552 -428.5,-2558.2 -425.5,-2561 -422.4,-2557.8 -417.1,-2563.1 -414.2,-2560.2 			"/>
		</g>
		<g id="Line_58_00000173146662317636085600000012215975675350622876_">
			<rect x="-411.3" y="-2589.3" class="st0" width="17.3" height="4.1"/>
		</g>
		<g id="Line_59_00000147923743468206127540000006126922659408607622_">
			<rect x="-411.3" y="-2574.1" class="st0" width="6.4" height="4.1"/>
		</g>
		<g id="Line_60_00000076577733875294551330000003023308800470554299_">
			<rect x="-411.3" y="-2559" class="st0" width="7" height="4.1"/>
		</g>
	</g>
	<g id="Ellipse_1372_00000093888910121557677210000006790598347008940956_">
		<path class="st0" d="M-383.6-2540.8c-13.4,0-24.4-10.9-24.4-24.4c0-13.4,10.9-24.4,24.4-24.4c13.4,0,24.4,10.9,24.4,24.4
			C-359.4-2551.8-370.3-2540.8-383.6-2540.8z M-383.6-2585.5c-11.2,0-20.3,9.1-20.3,20.3s9.1,20.3,20.3,20.3s20.3-9.1,20.3-20.3
			C-363.5-2576.5-372.5-2585.5-383.6-2585.5z"/>
	</g>
	<g id="Group_14512_00000119111188160601972930000009450719103042823572_">
		<g id="Line_61_00000050633607448988642650000006772207841973681343_">
			<rect x="-385.7" y="-2578.6" class="st0" width="4.1" height="19.2"/>
		</g>
		<g id="Line_62_00000003078781218269309500000002694454953933735331_">
			<rect x="-385.7" y="-2555.9" class="st0" width="4.1" height="4"/>
		</g>
	</g>
</g>
</svg>
