<svg xmlns="http://www.w3.org/2000/svg" viewBox="0 0 81.91 68.07"><defs><style>.cls-1,.cls-2{fill:none;stroke-miterlimit:10;stroke-width:3px;}.cls-1{stroke:#174374;}.cls-2{stroke:#ef3f23;}</style></defs><g id="Layer_2" data-name="Layer 2"><g id="Layer_1-2" data-name="Layer 1"><g id="Layer_1-2-2" data-name="Layer 1-2"><path class="cls-1" d="M24,1.5h49.3a7.14,7.14,0,0,1,7.1,7.1V45.8a7.14,7.14,0,0,1-7.1,7.1H8.6a7.14,7.14,0,0,1-7.1-7.1V8.57A7.13,7.13,0,0,1,8.6,1.5H24Z"/><rect class="cls-2" x="12.61" y="10.77" width="27.1" height="24.1"/><line class="cls-2" x1="47.01" y1="34.27" x2="70.31" y2="34.27"/><line class="cls-2" x1="47.01" y1="26.37" x2="70.31" y2="26.37"/><line class="cls-2" x1="47.01" y1="18.57" x2="70.31" y2="18.57"/><line class="cls-2" x1="47.01" y1="10.77" x2="70.31" y2="10.77"/><line class="cls-1" x1="1.31" y1="44.97" x2="80.41" y2="44.97"/><polyline class="cls-1" points="31.21 52.57 31.21 61.47 50.81 61.47 50.81 52.07"/><line class="cls-1" x1="18.91" y1="66.57" x2="63.41" y2="66.57"/><polyline class="cls-2" points="13.21 35.07 20.51 22.97 25.31 30.37 31.31 20.77 39.71 31.67"/></g></g></g></svg>