<?xml version="1.0" encoding="utf-8"?>
<!-- Generator: Adobe Illustrator 24.3.0, SVG Export Plug-In . SVG Version: 6.00 Build 0)  -->
<svg version="1.1" id="Layer_1" xmlns="http://www.w3.org/2000/svg" xmlns:xlink="http://www.w3.org/1999/xlink" x="0px" y="0px"
	 viewBox="0 0 87.8 93" style="enable-background:new 0 0 87.8 93;" xml:space="preserve">
<style type="text/css">
	.st0{fill:none;stroke:#EF3F23;stroke-width:3;stroke-miterlimit:10;}
	.st1{fill:none;stroke:#174374;stroke-width:3;stroke-linejoin:round;}
</style>
<g id="Layer_2_1_">
	<g id="Layer_1-2">
		<rect x="38.3" y="54.7" class="st0" width="11.1" height="14.1"/>
		<line class="st0" x1="22.5" y1="69.1" x2="65.2" y2="69.1"/>
		<path class="st1" d="M55.2,17.8h22.2c4.9,0,8.8,3.9,8.8,8.8c0,0,0,0,0,0v46.8c0,4.9-4,8.8-8.8,8.8c0,0,0,0,0,0H10.3
			c-4.9,0-8.8-4-8.8-8.8c0,0,0,0,0,0V26.7c0-4.9,4-8.8,8.8-8.8l0,0h22.2"/>
		<path class="st1" d="M43.9,1.5L43.9,1.5c6.3,0,11.3,5.1,11.3,11.3v21.4c0,6.3-5.1,11.3-11.3,11.3l0,0c-6.3,0-11.3-5.1-11.3-11.3
			V12.8C32.6,6.6,37.6,1.5,43.9,1.5z"/>
		<path class="st1" d="M55.2,25.9h9.4v7.8c0.3,11.5-8.8,21-20.3,21.2c-11.5,0.3-21-8.8-21.2-20.3c0-0.3,0-0.6,0-0.9v-7.8h9.5"/>
		<line class="st0" x1="23.9" y1="91.5" x2="63.9" y2="91.5"/>
		<line class="st1" x1="54.7" y1="15.8" x2="43" y2="15.8"/>
		<line class="st1" x1="54.7" y1="22.3" x2="43" y2="22.3"/>
		<line class="st1" x1="54.7" y1="28.7" x2="43" y2="28.7"/>
		<line class="st1" x1="54.7" y1="35.2" x2="43" y2="35.2"/>
	</g>
</g>
</svg>
